<?xml version="1.0" standalone="no"?>
<!DOCTYPE svg PUBLIC "-//W3C//DTD SVG 20010904//EN"
 "http://www.w3.org/TR/2001/REC-SVG-20010904/DTD/svg10.dtd">
<svg version="1.0" xmlns="http://www.w3.org/2000/svg"
 width="864.000000pt" height="864.000000pt" viewBox="0 0 864.000000 864.000000"
 preserveAspectRatio="xMidYMid meet">
<metadata>
Created by potrace 1.14, written by Peter Selinger 2001-2017
</metadata>
<g transform="translate(0.000000,864.000000) scale(0.100000,-0.100000)"
fill="#000000" stroke="none">
<path d="M4216 7240 c-22 -15 -49 -38 -59 -51 -110 -151 -240 -325 -246 -329
-5 -3 -14 -16 -21 -30 -7 -14 -19 -32 -27 -40 -8 -8 -128 -168 -268 -355 -321
-431 -317 -426 -333 -442 -7 -7 -10 -13 -5 -13 4 0 3 -4 -2 -8 -6 -4 -23 -25
-40 -47 -16 -22 -33 -44 -38 -50 -4 -5 -26 -35 -48 -65 -23 -30 -51 -68 -64
-85 -13 -16 -54 -71 -92 -122 -37 -51 -77 -104 -88 -119 -11 -14 -57 -76 -102
-138 -46 -61 -90 -120 -99 -131 -8 -11 -43 -57 -77 -102 -33 -46 -64 -83 -67
-83 -3 1 -27 30 -55 66 -27 37 -63 79 -80 95 -57 55 -79 57 -555 55 -428 -1
-436 -2 -477 -24 -72 -38 -112 -109 -107 -189 5 -65 17 -84 188 -283 11 -14
57 -68 101 -120 44 -52 107 -127 140 -165 33 -39 80 -95 105 -125 25 -29 62
-74 83 -98 44 -51 49 -36 -60 -179 -37 -49 -76 -100 -86 -114 -10 -13 -156
-209 -325 -435 -169 -226 -327 -438 -352 -472 -24 -34 -48 -62 -52 -62 -5 0
-8 -6 -8 -14 0 -8 -4 -16 -8 -18 -4 -1 -35 -41 -69 -88 -34 -47 -73 -98 -87
-114 -14 -16 -26 -33 -26 -37 0 -4 -6 -14 -13 -21 -7 -7 -53 -67 -102 -133
-49 -66 -93 -124 -97 -130 -12 -14 -59 -78 -83 -111 -11 -15 -38 -51 -60 -80
-22 -29 -47 -62 -55 -74 -8 -12 -23 -32 -32 -43 -23 -29 -20 -24 -128 -170
-52 -70 -121 -162 -153 -205 -70 -91 -88 -132 -85 -186 4 -82 51 -151 122
-180 35 -15 414 -16 4199 -16 l4161 0 43 21 c40 19 72 53 99 105 15 29 14 120
-2 153 -12 25 -775 1050 -898 1207 -31 40 -56 77 -56 83 0 6 -3 11 -7 11 -5 0
-33 34 -63 75 -30 42 -93 127 -140 189 -47 63 -94 126 -105 142 -11 15 -25 32
-31 38 -6 6 -15 18 -20 27 -5 9 -21 32 -36 50 -15 19 -78 104 -142 189 -63 85
-124 166 -135 178 -20 24 -20 24 0 74 77 197 96 472 43 653 -8 28 -14 51 -14
53 0 1 -7 19 -15 39 -9 20 -18 47 -21 60 -3 12 -12 27 -20 34 -8 6 -14 16 -14
21 0 36 -140 193 -236 264 -189 140 -375 199 -689 220 -72 5 -95 10 -112 27
-13 11 -23 26 -23 33 0 7 -4 14 -8 16 -5 2 -42 48 -83 103 -40 55 -76 102 -79
105 -3 3 -17 23 -32 45 -15 22 -38 52 -50 67 -13 15 -39 49 -58 75 -19 27 -39
51 -45 55 -6 4 -6 8 -1 8 6 0 3 6 -6 13 -8 6 -61 75 -118 152 -57 77 -107 142
-112 143 -4 2 -8 10 -8 18 0 8 -7 17 -15 20 -8 4 -15 10 -15 15 0 8 -85 124
-101 139 -3 3 -21 27 -40 55 -18 27 -38 55 -44 61 -5 6 -19 23 -30 38 -16 23
-109 147 -142 191 -5 6 -73 98 -153 205 -80 107 -147 197 -150 200 -4 3 -34
43 -68 90 -74 103 -98 126 -152 140 -61 16 -117 9 -164 -20z m-1 -1592 c65
-31 173 -14 219 35 12 12 45 42 74 66 l53 43 67 -69 c76 -79 118 -99 193 -90
56 7 86 24 154 89 28 26 55 48 60 48 10 -1 377 -485 383 -505 2 -7 -132 -10
-395 -10 -219 1 -414 -3 -435 -7 -54 -12 -103 -48 -129 -98 l-24 -44 -2 -1388
c-1 -1021 2 -1398 10 -1425 16 -50 79 -110 131 -124 48 -13 116 -17 116 -7 0
4 7 5 15 2 24 -10 305 -10 305 -1 0 5 5 5 11 2 14 -9 247 -11 255 -2 4 3 14 2
23 -2 35 -19 181 43 181 77 0 6 4 12 10 12 26 0 33 96 35 485 1 220 3 403 3
408 4 17 20 4 57 -48 52 -72 211 -285 230 -308 8 -9 15 -22 15 -27 0 -6 4 -10
8 -10 4 0 16 -13 25 -30 10 -16 24 -36 32 -43 8 -8 24 -30 37 -48 54 -79 292
-396 312 -415 31 -29 58 -43 103 -50 49 -8 128 -8 142 1 6 3 11 2 11 -2 0 -9
154 -7 177 1 7 3 13 2 13 -2 0 -4 36 -7 80 -7 44 0 80 3 80 6 0 3 20 3 44 -1
24 -3 53 -3 65 1 11 5 21 5 21 1 0 -8 155 -6 177 2 7 3 13 2 13 -2 0 -4 19 -6
42 -5 24 1 43 2 43 3 0 1 7 3 15 5 55 12 111 53 137 101 21 39 22 140 1 179
-9 17 -55 80 -102 140 -47 61 -89 115 -93 120 -50 65 -89 112 -102 123 -8 6
-12 12 -8 12 7 0 2 7 -28 43 -14 16 -122 154 -155 197 -22 29 -118 152 -156
199 -7 9 -33 42 -58 73 -25 32 -46 61 -46 64 0 4 -8 13 -17 20 -17 13 -14 17
27 53 53 46 37 56 157 -104 45 -60 86 -114 90 -120 5 -5 20 -26 33 -45 14 -19
30 -42 37 -50 6 -8 43 -58 82 -110 39 -52 77 -102 84 -110 8 -8 23 -28 33 -45
10 -16 27 -39 37 -50 10 -11 27 -35 38 -52 12 -18 24 -33 28 -33 4 0 13 -11
19 -24 6 -14 20 -35 31 -48 10 -13 50 -64 88 -115 37 -51 77 -104 88 -119 11
-15 57 -77 103 -138 45 -61 88 -118 95 -126 7 -8 64 -85 127 -170 63 -85 118
-159 123 -165 4 -5 23 -30 42 -55 19 -24 32 -46 30 -49 -7 -6 -7435 -7 -7435
0 0 3 9 15 20 27 11 12 20 26 20 31 0 6 6 14 13 18 6 4 26 28 42 53 17 24 37
51 45 60 8 9 26 32 40 53 14 20 28 37 33 37 4 0 7 5 7 10 0 6 17 32 38 58 37
49 47 62 121 162 22 30 48 64 57 75 8 11 87 117 175 235 88 118 169 225 180
238 10 12 19 26 19 31 0 5 4 11 8 13 4 2 49 59 100 128 51 69 98 132 105 140
6 8 37 49 67 90 30 41 60 82 67 90 13 17 108 143 138 184 11 15 27 36 35 46 8
11 69 92 134 180 l119 162 26 -29 c58 -63 58 -56 2 -127 -28 -35 -51 -69 -51
-75 0 -6 -4 -11 -9 -11 -5 0 -30 -29 -55 -64 -25 -36 -52 -70 -58 -78 -7 -7
-33 -40 -57 -73 -25 -33 -47 -62 -50 -65 -3 -3 -53 -68 -111 -145 -58 -77
-115 -151 -127 -165 -13 -14 -23 -28 -23 -32 0 -3 -6 -13 -13 -20 -7 -7 -48
-60 -92 -118 -43 -58 -81 -107 -84 -110 -4 -3 -61 -78 -128 -167 -128 -170
-149 -213 -139 -286 5 -37 41 -96 76 -125 49 -40 65 -41 536 -42 304 0 469 3
497 11 30 8 57 27 95 66 28 30 52 58 52 63 0 5 6 15 13 22 7 7 36 45 64 83 29
39 61 81 72 95 10 14 74 99 142 190 67 91 126 167 131 168 4 2 8 7 8 12 0 12
130 183 131 173 1 -4 2 -170 3 -368 2 -419 2 -417 96 -485 l35 -25 407 -2
c370 -3 410 -1 440 15 40 21 73 56 98 102 18 35 18 91 18 1426 0 1334 -1 1392
-18 1430 -25 53 -48 76 -95 99 -38 18 -64 20 -422 20 -211 0 -383 2 -383 4 0
3 57 84 82 116 106 135 128 166 128 174 0 5 4 11 8 13 4 2 43 49 86 106 49 66
81 100 89 95 7 -4 27 -24 45 -44 42 -48 94 -73 156 -75 71 -3 96 9 178 86 l73
69 65 -64 c36 -34 79 -69 95 -77z m-1180 -938 c0 -165 -2 -300 -5 -300 -3 0
-12 9 -20 21 -8 11 -23 31 -34 42 -10 12 -39 49 -64 82 -25 33 -49 62 -52 65
-10 8 -60 76 -60 81 0 9 227 309 233 309 1 0 2 -135 2 -300z m2847 -378 c52
-22 66 -50 62 -122 -3 -63 -17 -94 -57 -124 -49 -37 -101 -47 -262 -50 l-100
-1 -1 155 c-1 85 1 159 3 163 3 4 74 6 158 4 124 -4 161 -9 197 -25z"/>
</g>
</svg>
