<svg xmlns="http://www.w3.org/2000/svg" width="34.746" height="34.746" viewBox="0 0 34.746 34.746">
  <g id="_1161953_instagram_icon" data-name="1161953_instagram_icon" transform="translate(-3.4 -4.8)">
    <path id="Pfad_17" data-name="Pfad 17" d="M24.367,16.7a8.967,8.967,0,1,0,8.967,8.967A8.984,8.984,0,0,0,24.367,16.7Zm0,14.711a5.744,5.744,0,1,1,5.744-5.744A5.77,5.77,0,0,1,24.367,31.411Z" transform="translate(-3.594 -3.564)" fill="#E96685"/>
    <circle id="Ellipse_38" data-name="Ellipse 38" cx="2.031" cy="2.031" r="2.031" transform="translate(28.058 10.894)" fill="#E96685"/>
    <path id="Pfad_18" data-name="Pfad 18" d="M35.343,7.672A9.977,9.977,0,0,0,27.988,4.8H13.557C7.463,4.8,3.4,8.863,3.4,14.957V29.318a10.08,10.08,0,0,0,2.942,7.5,10.223,10.223,0,0,0,7.285,2.732H27.918a10.344,10.344,0,0,0,7.355-2.732,10.029,10.029,0,0,0,2.872-7.425V14.957A10.042,10.042,0,0,0,35.343,7.672Zm-.28,21.716A6.845,6.845,0,0,1,33.032,34.5a7.241,7.241,0,0,1-5.114,1.821H13.628A7.241,7.241,0,0,1,8.514,34.5a7.041,7.041,0,0,1-1.891-5.184V14.957A6.984,6.984,0,0,1,8.514,9.844a7.124,7.124,0,0,1,5.114-1.821H28.058a6.984,6.984,0,0,1,5.114,1.891,7.229,7.229,0,0,1,1.891,5.044V29.388Z" fill="#E96685"/>
  </g>
</svg>
