
<svg xmlns="http://www.w3.org/2000/svg" width="34.658" height="35.746" viewBox="0 0 34.658 35.746">
  <path id="_5279114_linkedin_network_social_network_linkedin_logo_icon" data-name="5279114_linkedin_network_social network_linkedin logo_icon" d="M17.329,0c9.564,0,17.329,8.009,17.329,17.873S26.893,35.746,17.329,35.746,0,27.737,0,17.873,7.765,0,17.329,0ZM11.911,27.917V13.96h-4.5V27.917Zm16.22,0v-8c0-4.287-2.219-6.282-5.179-6.282a4.449,4.449,0,0,0-4.054,2.3V13.96H14.4c.06,1.31,0,13.958,0,13.958h4.5V20.122a3.264,3.264,0,0,1,.148-1.132,2.471,2.471,0,0,1,2.308-1.7c1.627,0,2.279,1.28,2.279,3.156v7.468h4.5ZM9.692,7.229a2.414,2.414,0,1,0-.06,4.824h.029a2.415,2.415,0,1,0,.031-4.824Z" fill="#E96685" fill-rule="evenodd"/>
</svg>