<svg xmlns="http://www.w3.org/2000/svg" xmlns:xlink="http://www.w3.org/1999/xlink" width="171.717" height="116.516" viewBox="0 0 171.717 116.516">
  <defs>
    <linearGradient id="linear-gradient" x1="0.5" x2="0.5" y2="1" gradientUnits="objectBoundingBox">
      <stop offset="0" stop-color="#ec64a1"/>
      <stop offset="1" stop-color="#e36855"/>
    </linearGradient>
  </defs>
  <g id="Gruppe_5" data-name="Gruppe 5" transform="translate(-174.5 -542.421)">
    <path id="Pfad_7" data-name="Pfad 7" d="M83.359,0l83.359,111.516H0Z" transform="translate(177 544.921)" fill="none" stroke="#fff" stroke-linecap="round" stroke-linejoin="round" stroke-width="5"/>
    <g id="Gruppe_4" data-name="Gruppe 4" transform="translate(-106 -192)">
      <g id="Gruppe_3" data-name="Gruppe 3" transform="translate(307.506 777.703)">
        <path id="Pfad_2" data-name="Pfad 2" d="M50.944,0H33.651L17.339,21.841l-3.265-4.034V0H0V54.573H14.074V29.848l19.5,24.725H49.881L28.551,29.32Z" transform="translate(50.944 54.734) rotate(180)" fill="#e9666e" stroke="#e9666e" stroke-linejoin="round" stroke-width="5"/>
        <path id="Pfad_3" data-name="Pfad 3" d="M38.025-41.451a6.945,6.945,0,0,0-.843-3.518,5.65,5.65,0,0,0-2.9-2.309,10.657,10.657,0,0,0-3.335-.715q-1.906-.128-4.435-.128H21.422v14.7h4.325a40.305,40.305,0,0,0,5.644-.33,8.086,8.086,0,0,0,3.812-1.5,7.305,7.305,0,0,0,2.144-2.511A8.4,8.4,0,0,0,38.025-41.451ZM59.979-3.591H42.789L27.943-23.6h-6.52V-3.591h-14V-58.164h23.6a54.226,54.226,0,0,1,8.32.55,17.958,17.958,0,0,1,6.524,2.382,14.231,14.231,0,0,1,4.893,4.746,13.6,13.6,0,0,1,1.814,7.312,16.223,16.223,0,0,1-2.8,9.859,21.156,21.156,0,0,1-8.008,6.341Z" transform="translate(57.726 58.164)" fill="#e9666e" stroke="#e9666e" stroke-linejoin="round" stroke-width="5"/>
      </g>
    </g>
    <path id="Pfad_8" data-name="Pfad 8" d="M614.112,948.141l4.71,4.982,5-4.982,4.881,4.982,5.6-4.982,4.524,4.982,5.357-4.982L629.145,928C629.3,928,614.112,948.141,614.112,948.141Z" transform="translate(-368.786 -383.079)" stroke="#fff" stroke-linecap="round" stroke-linejoin="round" stroke-width="5" fill="url(#linear-gradient)"/>
  </g>
</svg>
