<svg xmlns="http://www.w3.org/2000/svg" xmlns:xlink="http://www.w3.org/1999/xlink" width="108.432" height="74.185" viewBox="0 0 108.432 74.185">
  <defs>
    <linearGradient id="linear-gradient" x1="0.5" x2="0.5" y2="1" gradientUnits="objectBoundingBox">
      <stop offset="0" stop-color="#ec64a1"/>
      <stop offset="1" stop-color="#e36855"/>
    </linearGradient>
  </defs>
  <g id="Gruppe_5" data-name="Gruppe 5" transform="translate(-174.5 -542.421)">
    <path id="Pfad_7" data-name="Pfad 7" d="M51.716,0l51.716,69.185H0Z" transform="translate(177 544.921)" fill="none" stroke="#000" stroke-linecap="round" stroke-linejoin="round" stroke-width="5"/>
    <g id="Gruppe_4" data-name="Gruppe 4" transform="translate(192.204 570.222)">
      <g id="Gruppe_3" data-name="Gruppe 3">
        <path id="Pfad_2" data-name="Pfad 2" d="M31.606,0H20.877L10.757,13.55l-2.025-2.5V0H0V33.857H8.731V18.518L20.826,33.857h10.12L17.713,18.19Z" transform="translate(31.606 33.957) rotate(180)" fill="#e9666e" stroke="#e9666e" stroke-linejoin="round" stroke-width="5"/>
        <path id="Pfad_3" data-name="Pfad 3" d="M26.408-47.8a4.309,4.309,0,0,0-.523-2.183,3.506,3.506,0,0,0-1.8-1.432,6.612,6.612,0,0,0-2.069-.443q-1.182-.08-2.751-.08H16.108v9.118h2.683a25.006,25.006,0,0,0,3.5-.2,5.017,5.017,0,0,0,2.365-.932,4.532,4.532,0,0,0,1.33-1.558A5.212,5.212,0,0,0,26.408-47.8Zm13.62,23.488H29.364L20.153-36.722H16.108v12.415H7.422V-58.164H22.065a33.642,33.642,0,0,1,5.162.341,11.141,11.141,0,0,1,4.047,1.478A8.829,8.829,0,0,1,34.31-53.4a8.44,8.44,0,0,1,1.126,4.536A10.065,10.065,0,0,1,33.7-42.748a13.125,13.125,0,0,1-4.968,3.934Z" transform="translate(32.996 58.164)" fill="#e9666e" stroke="#e9666e" stroke-linejoin="round" stroke-width="5"/>
      </g>
    </g>
    <path id="Pfad_8" data-name="Pfad 8" d="M614.112,940.5l2.922,3.091,3.1-3.091,3.028,3.091,3.471-3.091,2.806,3.091,3.323-3.091L623.439,928C623.535,928,614.112,940.5,614.112,940.5Z" transform="translate(-394.723 -383.079)" stroke="#000" stroke-linecap="round" stroke-linejoin="round" stroke-width="5" fill="url(#linear-gradient)"/>
  </g>
</svg>
